# xmcd CD database file
#
# Track frame offsets:
#	150
#	29928
#	69258
#	105358
#	151483
#	204543
#	244643
#
# Disc length: 3747 seconds
#
# Revision: 0
# Processed by: cddbd v1.5.1PL2 Copyright (c) Steve Scherf et al.
# Submitted via: CDex 1.51
#
DISCID=580ea107
DTITLE=矢野沙織 - Parker's Mood Live In New York
DYEAR=2005
DGENRE=Jazz
TTITLE0=I Got Rhythm
TTITLE1=The Days Of Wine And Roses
TTITLE2=Composition 101
TTITLE3=Don't Explain
TTITLE4=Parker's Mood
TTITLE5=Bohemia After Dark
TTITLE6=A Night In Tunisia
EXTD=YEAR: 2005
EXTT0=
EXTT1=
EXTT2=
EXTT3=
EXTT4=
EXTT5=
EXTT6=
PLAYORDER=
